<svg xmlns="http://www.w3.org/2000/svg" width="56" height="56" viewBox="0 0 56 56">
    <g>
        <path fill="rgba(255,255,255,0)" d="M0 0H56V56H0z" transform="translate(123.328 -4045.588) translate(-123.328 4045.588)"/>
        <path fill="#222" d="M386.545 577.789V555.1h-41.919v22.693a3.093 3.093 0 0 0-2.626 3.048v2.545h2.626v19.427l1.253 8.283h8.5v-6.543H376.8v6.547h8.495l1.242-8.132v-1.943h.009v-17.639h2.626v-2.545a3.093 3.093 0 0 0-2.627-3.052zm1.617 4.587h-5.25v-3.617h3.169a2.084 2.084 0 0 1 2.082 2.082zm-9.347 26.7v-4.525h1.861v-2.018H350.5v2.018h1.861v4.525h-4.744l-.968-6.342v-6.455h6.293a2.723 2.723 0 0 0 1.729-.617v1.989a2.868 2.868 0 0 0 2.864 2.864h16.111a2.868 2.868 0 0 0 2.864-2.864v-1.989a2.723 2.723 0 0 0 1.729.617h6.293v6.455l-.968 6.342zm-35.806-28.237a2.084 2.084 0 0 1 2.082-2.082h3.169v3.617h-5.25zm41.518-23.727v20.638h-1.69l-.733-6.422c-.142-1.37-1.878-2.194-5.806-2.754a91.434 91.434 0 0 0-21.426 0c-3.928.56-5.665 1.383-5.805 2.743l-.734 6.432h-1.69v-20.635zm-3.193 25.263h-31.5l1.222-10.711c.772-.7 5.783-1.7 14.528-1.7h.017c8.734 0 13.738 1 14.508 1.7zm-34.69 9.909c0-.249.016-.5.037-.743 3.643.437 7.428 1.148 7.985 1.692v.309a1.731 1.731 0 0 1-1.729 1.729h-6.293zm9.031 5.368v-4H375.5v4a1.857 1.857 0 0 1-1.855 1.855H357.53a1.857 1.857 0 0 1-1.855-1.854zm-.2-5.008c-.5-.552-2.3-1.372-8.659-2.105a8.928 8.928 0 0 1 .537-1.746l2.292-5.408h31.88l2.3 5.418a8.85 8.85 0 0 1 .533 1.736c-6.362.734-8.156 1.554-8.66 2.105zm21.029.589c.557-.543 4.341-1.255 7.985-1.692.021.248.037.5.037.75v2.98h-6.293a1.731 1.731 0 0 1-1.729-1.729zm-29.051-9.848l-.81 1.911v-1.911zm36.263 0h.81v1.915z" transform="translate(123.328 -4045.588) translate(-461.328 3490.492)"/>
    </g>
</svg>
