<svg xmlns="http://www.w3.org/2000/svg" width="56" height="56" viewBox="0 0 56 56">
    <g>
        <path fill="rgba(255,255,255,0)" d="M0 0H56V56H0z" transform="translate(125.328 -4044.588) translate(-125.328 4044.588)"/>
        <path fill="#222" d="M164.2 122.58h-2.294v-4.733a5.132 5.132 0 0 0-5.126-5.126H123.6a5.132 5.132 0 0 0-5.126 5.126v4.733h-2.295a2.985 2.985 0 0 0-2.982 2.981V135.9a2.985 2.985 0 0 0 2.982 2.981h2.295V162.1l2.187.546 1.063 6.072h8.376l.515-5.883h19.149l.515 5.883h8.377l1.063-6.072 2.187-.546v-23.22h2.294a2.985 2.985 0 0 0 2.982-2.981v-10.337a2.985 2.985 0 0 0-2.982-2.982zm-45.726 14.284h-2.295a.966.966 0 0 1-.965-.965v-10.337a.966.966 0 0 1 .965-.965h2.295zm2.016 11.7a6.681 6.681 0 0 0 5.223 2.538h1.426v2.606a1.234 1.234 0 0 1-1.232 1.233h-5.416zm39.4 11.958l-1.931.483-1 5.695h-4.834l-.339-3.868h2.344v-2.016h-27.88v2.016h2.344l-.338 3.868h-4.834l-1-5.695-1.931-.483v-4.574h5.416a2.332 2.332 0 0 0 2.241-2.241v-2.606h24.086v2.606a2.332 2.332 0 0 0 2.241 2.241h5.416zm0-5.582h-5.416a1.235 1.235 0 0 1-1.233-1.233v-2.606h1.426a6.681 6.681 0 0 0 5.222-2.538zm0-10.069c0 3.157-2.569 5.222-5.726 5.222H126.22c-3.157 0-5.727-2.065-5.727-5.222v-24.379h39.4zm0-25.393h-39.4v-1.636a3.114 3.114 0 0 1 3.11-3.11h33.179a3.114 3.114 0 0 1 3.11 3.11zm5.276 16.416a.966.966 0 0 1-.965.965h-2.294V124.6h2.293a.966.966 0 0 1 .965.965z" transform="translate(125.328 -4044.588) translate(-237.529 3931.867)"/>
    </g>
</svg>
