<svg xmlns="http://www.w3.org/2000/svg" width="25.999" height="18" viewBox="0 0 25.999 18">
    <g>
        <g>
            <g>
                <g>
                    <g>
                        <g>
                            <g>
                                <path fill="#fff" fill-rule="evenodd" d="M13.456 0c1.742.009 7.964.075 9.7.536a3.239 3.239 0 0 1 2.3 2.274A31.957 31.957 0 0 1 26 8.912v.176a31.958 31.958 0 0 1-.543 6.1 3.239 3.239 0 0 1-2.3 2.274c-1.821.482-8.562.532-9.919.537h-.478c-1.357-.005-8.1-.054-9.919-.537a3.239 3.239 0 0 1-2.3-2.274A31.967 31.967 0 0 1 0 9.088v-.176a31.966 31.966 0 0 1 .543-6.1A3.239 3.239 0 0 1 2.842.536C4.58.076 10.8.01 12.544 0zm-3.115 5.2v7.6l6.8-3.8z" transform="translate(-1593 -57) translate(1) translate(1496 54) translate(96 3)"/>
                            </g>
                        </g>
                    </g>
                </g>
            </g>
        </g>
    </g>
</svg>
