<svg xmlns="http://www.w3.org/2000/svg" width="80.957" height="56.631" viewBox="0 0 80.957 56.631">
    <g>
        <path fill="rgba(255,255,255,0)" d="M0 0H80V56H0z" transform="translate(.25 .383) translate(0 -.001)"/>
        <g>
            <path fill="#fff" stroke="#fff" stroke-width="0.5px" d="M-77.821 15.641c-8.288 2.5-12.722-1.637-12.9-1.812l-.836-.816-.51 1.051a7.665 7.665 0 0 1-6.968 4.326 7.54 7.54 0 0 1-6.088-2.755l-.607-.746-.886.936a8.862 8.862 0 0 1-11.076 1.16l-1.035-.68-.7 1.024a6.312 6.312 0 0 1-7.126 2.482l-.792-.253-.545.629a4.594 4.594 0 0 1-3.167 1.592 4.576 4.576 0 0 1-3.365-1.115 4.627 4.627 0 0 1-1.6-3.509v-.008a4.662 4.662 0 0 1 4.317-4.623l.825-.064.27-.777a6.322 6.322 0 0 1 7.752-3.969l1.2.362.369-1.187a8.949 8.949 0 0 1 3.213-4.462l.756-.534-.408-.673c-1.18-1.946-2.23-5.309-.536-10.277a11 11 0 0 1 7.38-7.008 17.309 17.309 0 0 1 5.448-.89l1.436.046-.659-1.276c-.144-.279-3.452-6.87 2.817-10.989a9.43 9.43 0 0 1 11.738.905l.512.5.574-.422a12.982 12.982 0 0 1 14.445-.649 9.4 9.4 0 0 1 4.873 8.634 15.97 15.97 0 0 1-.986 5.472l-.561 1.374 1.466-.221A7.272 7.272 0 0 1-61.7-8.335c1.094 3.268-.522 6.174-2.338 8.22h2.209A9.308 9.308 0 0 0-60.09-8.83a8.954 8.954 0 0 0-8.6-6.517h-.022c.85-3.03 2.166-10.8-5.018-14.946a14.651 14.651 0 0 0-15.754.362 11.089 11.089 0 0 0-13.294-.649c-5.824 3.827-4.706 9.536-3.869 11.987-3.033.226-10.678 1.541-13.222 8.994-1.729 5.071-.874 8.718.32 11.032A10.57 10.57 0 0 0-122.778 6a8.01 8.01 0 0 0-9.338 4.874 6.354 6.354 0 0 0-5.6 6.274v.011a6.309 6.309 0 0 0 2.186 4.784 6.271 6.271 0 0 0 4.121 1.539c.155 0 .312-.006.468-.018a6.269 6.269 0 0 0 4.135-1.966 7.981 7.981 0 0 0 8.529-2.887 10.568 10.568 0 0 0 12.465-1.224 9.2 9.2 0 0 0 6.806 2.69h.027a9.425 9.425 0 0 0 7.919-4.364c1.808 1.281 6.487 3.73 13.729 1.545a14.177 14.177 0 0 0 4.782-2.51l-1.078-1.309a12.343 12.343 0 0 1-4.194 2.202z" transform="translate(.25 .383) translate(137.719 32.521)"/>
            <g fill="none" stroke="#fff" stroke-width="2px">
                <path stroke-linejoin="round" d="M18 7.5v12" transform="translate(.25 .383) translate(60.5 29.502) translate(-4.5)"/>
                <path d="M19.5 18l-6 6-6-6" transform="translate(.25 .383) translate(60.5 29.502) translate(0 -4.5)"/>
            </g>
            <path fill="#fff" stroke="rgba(0,0,0,0)" stroke-miterlimit="10" d="M19878.529 18286v-1.2c1.037-1.99 4.2-2.9 4.2-4.562a1.287 1.287 0 0 0-1.457-1.361 1.5 1.5 0 0 0-1.5 1.127l-1.207-.666a2.784 2.784 0 0 1 2.781-1.918 2.685 2.685 0 0 1 2.955 2.723c0 2.473-2.918 3.35-3.7 4.449h3.861v1.41zm-15.314-8.307a6.545 6.545 0 1 1 6.547 6.7 6.42 6.42 0 0 1-6.547-6.693zm2.537 0c0 2.494 1.525 4.4 4.01 4.4s4-1.908 4-4.4-1.533-4.406-4-4.406-4.01 1.913-4.01 4.413zm-15.75 0a6.645 6.645 0 0 1 12.3-3.535l-1.832 1.361a4.214 4.214 0 0 0-3.871-2.232c-2.5 0-4.066 1.908-4.066 4.406s1.566 4.4 4.066 4.4a4.209 4.209 0 0 0 3.871-2.227l1.832 1.361a6.645 6.645 0 0 1-12.3-3.537z" transform="translate(.25 .383) translate(-19818.613 -18249.021)"/>
        </g>
    </g>
</svg>
