<svg xmlns="http://www.w3.org/2000/svg" id="logo" width="216" height="48" viewBox="0 0 216 48">
	<defs><style>.cls-100{fill:#002c5f;}</style></defs>
	<g id="그룹_3144">
		<path id="패스_14600" d="M477.336 117.494v8.164h-9.214v-8.164h-5.075v21.425h5.075v-8.614h9.214v8.614h5.075v-21.425h-5.075z" class="cls-100" transform="translate(-394.373 -113.279)"/>
		<path id="패스_14601" d="M598.08 117.494l-5.31 8.485-5.307-8.485h-5.989l8.763 14.007v7.419h5.068v-7.42l8.766-14.007h-5.991z" class="cls-100" transform="translate(-491.438 -113.279)"/>
		<g id="그룹_3142" transform="translate(114.67 4.214)">
			<path id="패스_14602" d="M732.322 117.494V133.2a1.056 1.056 0 0 1-1.08 1.079H723.1v-16.785h-5.07v21.425h15a4.053 4.053 0 0 0 4.358-4.376v-17.049h-5.066z" class="cls-100" transform="translate(-718.03 -117.493)"/>
			<path id="패스_14603" d="M866.428 117.494h-15v21.425h5.072v-16.784h8.143a1.056 1.056 0 0 1 1.074 1.073v15.712h5.069v-17.043a4.369 4.369 0 0 0-1.168-3.2 4.319 4.319 0 0 0-3.19-1.183" class="cls-100" transform="translate(-827.363 -117.493)"/>
			<path id="패스_14604" d="M999.119 123.242v9.929a1.079 1.079 0 0 1-1.086 1.107H989.9v-12.147h8.1a1.068 1.068 0 0 1 1.117 1.111m.714-5.748h-15v21.428h15a4.3 4.3 0 0 0 3.181-1.183 4.348 4.348 0 0 0 1.174-3.2v-12.662a4.348 4.348 0 0 0-1.174-3.2 4.3 4.3 0 0 0-3.181-1.18" class="cls-100" transform="translate(-936.706 -117.493)"/>
			<path id="패스_14605" d="M1131.267 122.131v5.518h-9.217v-4.43a1.08 1.08 0 0 1 1.08-1.089zm-9.924-4.64a4.285 4.285 0 0 0-3.181 1.183 4.333 4.333 0 0 0-1.177 3.2v17.046h5.065v-6.632h9.217v6.632h5.068v-21.429z" class="cls-100" transform="translate(-1045.018 -117.491)"/>
		</g>
		<path id="사각형_98" d="M0 0H5.072V21.425H0z" class="cls-100" transform="translate(210.928 4.217)"/>
		<g id="그룹_3143">
			<path id="패스_14606" d="M100.72 97.663c.607-.119 1-.119 1.146.038a.376.376 0 0 1 0 .456 2.646 2.646 0 0 1-.251.349c-5.131 6.078-9.035 15.038-10.147 17.628-.081.179-.169.355-.235.472a.59.59 0 0 1-.485.349 1.046 1.046 0 0 1-.6-.2c-3.406-2.111-5.429-4.738-5.429-7.592 0-5.147 6.584-9.57 16-11.5m5.259 3.873c.485-1.123 1.318-3.533 3.231-4.489a4.785 4.785 0 0 1 1.935-.447c.144-.006.247 0 .288 0a50.156 50.156 0 0 1 14.514 2.023c.028.009.128.047.157.06.385.129.582.305.582.529a.655.655 0 0 1-.238.472c-.056.06-.147.135-.263.233a33.8 33.8 0 0 1-9.33 5.021 45.49 45.49 0 0 1-6.822 2.187c-1.478.315-6.937 1.148-4.054-5.587m25.49.192a.588.588 0 0 1 .488-.349 1 1 0 0 1 .6.2c3.406 2.108 5.425 4.738 5.425 7.585 0 5.15-6.587 9.574-16 11.508-.6.12-1.008.117-1.143-.038a.363.363 0 0 1 0-.462 2.26 2.26 0 0 1 .247-.349c5.131-6.078 9.035-15.035 10.147-17.621.081-.183.166-.355.232-.472m-14.658 15.042c-.482 1.133-1.312 3.539-3.228 4.5a4.825 4.825 0 0 1-1.935.447h-.291a50.218 50.218 0 0 1-14.508-2.023c-.034-.009-.131-.047-.159-.06-.385-.129-.582-.308-.582-.529a.654.654 0 0 1 .241-.475c.056-.06.147-.132.26-.233a34 34 0 0 1 9.329-5.021 45.155 45.155 0 0 1 6.828-2.183c1.471-.315 6.931-1.155 4.045 5.581m-5.457 7.327c16.019 0 29.006-6.682 29.006-14.928s-12.986-14.925-29.006-14.925-29.009 6.682-29.009 14.925S95.335 124.1 111.355 124.1" class="cls-100" transform="translate(-82.346 -94.243)"/>
		</g>
	</g>
	<g id="그룹_3145" transform="translate(68.366 33.73)">
		<path id="패스_14607" d="M465.493 284.165h-4.151v-2.3h10.911v2.3H468.1v11.408h-2.607z" class="cls-100" transform="translate(-461.342 -281.585)"/>
		<path id="패스_14608" d="M536.48 290.03h-2.167v5.543h-2.607v-13.706h6.057c2.628 0 4.513 1.552 4.513 4.092a3.835 3.835 0 0 1-2.988 3.89l4.412 5.664v.061h-3.129zm1-2.277c1.384 0 2.106-.665 2.106-1.794s-.722-1.794-2.106-1.794h-3.169v3.587z" class="cls-100" transform="translate(-519.013 -281.585)"/>
		<path id="패스_14609" d="M603.655 289.728v-7.861h2.608v7.679c0 2.338.922 3.87 3.188 3.87 2.247 0 3.17-1.532 3.17-3.87v-7.679h2.607v7.861c0 3.527-1.926 6.127-5.776 6.127-3.871 0-5.797-2.6-5.797-6.127z" class="cls-100" transform="translate(-577.984 -281.585)"/>
		<path id="패스_14610" d="M678.664 287.446a7.047 7.047 0 0 1 13.057-3.769l-1.945 1.451a4.471 4.471 0 0 0-4.112-2.378c-2.648 0-4.312 2.036-4.312 4.7s1.664 4.7 4.312 4.7a4.471 4.471 0 0 0 4.112-2.378l1.945 1.451a7.047 7.047 0 0 1-13.057-3.769z" class="cls-100" transform="translate(-639.462 -280.311)"/>
		<path id="패스_14611" d="M761.586 281.867h2.608v6.43l5.516-6.43h3.148v.061l-5.054 5.744 5.335 7.841v.061h-3.049l-4.012-5.926-1.884 2.137v3.789h-2.608z" class="cls-100" transform="translate(-707.426 -281.585)"/>
		<path id="패스_14612" d="M849.022 290.611c0-2.076 1.244-3.265 3.25-4.052a4.09 4.09 0 0 1-.983-2.6 3.794 3.794 0 0 1 3.992-3.648 3.6 3.6 0 0 1 3.89 3.427c0 1.854-1.3 2.942-3.109 3.567l2.006 2.177 2.487-2.761 1.625 1.471-2.648 2.923 2.868 3.124v.061h-3.288l-1.283-1.431a6.542 6.542 0 0 1-4.253 1.713c-2.807-.001-4.554-1.714-4.554-3.971zm7.362.625l-2.789-3.124c-1.184.464-2.065 1.109-2.065 2.3a1.959 1.959 0 0 0 2.126 1.935 4.083 4.083 0 0 0 2.728-1.111zm-1.686-5.462c1.464-.484 2.026-1.109 2.026-1.955a1.4 1.4 0 0 0-1.463-1.351 1.479 1.479 0 0 0-1.544 1.471c0 .625.34 1.089.983 1.834z" class="cls-100" transform="translate(-779.09 -280.311)"/>
		<path id="패스_14613" d="M956.3 281.867h5.637c2.748 0 4.452 1.351 4.452 3.648a3.173 3.173 0 0 1-1.564 2.741 3.367 3.367 0 0 1 2.588 3.406c0 2.479-1.725 3.91-4.895 3.91H956.3zm5.3 5.644c1.525 0 2.106-.685 2.106-1.733s-.581-1.733-2.106-1.733h-2.687v3.467zm.823 5.886c1.584 0 2.306-.685 2.306-1.855s-.722-1.854-2.306-1.854h-3.51v3.712z" class="cls-100" transform="translate(-867.013 -281.585)"/>
		<path id="패스_14614" d="M1028.025 289.728v-7.861h2.607v7.679c0 2.338.923 3.87 3.19 3.87 2.246 0 3.168-1.532 3.168-3.87v-7.679h2.608v7.861c0 3.527-1.925 6.127-5.776 6.127-3.871 0-5.797-2.6-5.797-6.127z" class="cls-100" transform="translate(-925.802 -281.585)"/>
		<path id="패스_14615" d="M1099.929 291.478l1.7-1.673a4.838 4.838 0 0 0 4.172 2.419c1.684 0 2.567-.847 2.567-1.915 0-.867-.6-1.532-2.206-1.774l-1.183-.181c-2.408-.363-4.032-1.753-4.032-3.87 0-2.318 1.884-4.172 4.934-4.172a5.988 5.988 0 0 1 4.813 2.217l-1.665 1.733a4.065 4.065 0 0 0-3.209-1.592c-1.364 0-2.167.726-2.167 1.552 0 .806.6 1.391 1.786 1.572l1.162.181c2.808.423 4.453 1.834 4.453 4.152 0 2.641-2.146 4.454-5.3 4.454a6.591 6.591 0 0 1-5.825-3.103z" class="cls-100" transform="translate(-984.735 -280.311)"/>
	</g>
</svg>